HIERARCHY
ROOT Hips
{
	OFFSET -0.001795 -0.223333 0.028219
	CHANNELS 6 Xposition Yposition Zposition Zrotation Yrotation Xrotation 
	JOINT LeftUpLeg
	{
		OFFSET 0.069520 -0.091406 -0.006815
		CHANNELS 3 Zrotation Yrotation Xrotation
		JOINT LeftLeg
		{
			OFFSET 0.034277 -0.375199 -0.004496
			CHANNELS 3 Zrotation Yrotation Xrotation
			JOINT LeftFoot
			{
				OFFSET -0.013596 -0.397961 -0.043693
				CHANNELS 3 Zrotation Yrotation Xrotation
				JOINT LeftToe
				{
					OFFSET 0.026358 -0.055791 0.119288
					CHANNELS 3 Zrotation Yrotation Xrotation
					End Site
					{
						OFFSET 0.000000 0.000000 0.000000
					}
				}
			}
		}
	}
	JOINT RightUpLeg
	{
		OFFSET -0.067670 -0.090522 -0.004320
		CHANNELS 3 Zrotation Yrotation Xrotation
		JOINT RightLeg
		{
			OFFSET -0.038290 -0.382569 -0.008850
			CHANNELS 3 Zrotation Yrotation Xrotation
			JOINT RightFoot
			{
				OFFSET 0.015774 -0.398415 -0.042312
				CHANNELS 3 Zrotation Yrotation Xrotation
				JOINT RightToe
				{
					OFFSET -0.025372 -0.048144 0.123348
					CHANNELS 3 Zrotation Yrotation Xrotation
					End Site
					{
						OFFSET 0.000000 0.000000 0.000000
					}
				}
			}
		}
	}
	JOINT Spine
	{
		OFFSET -0.002533 0.108963 -0.026696
		CHANNELS 3 Zrotation Yrotation Xrotation
		JOINT Spine1
		{
			OFFSET 0.005487 0.135180 0.001092
			CHANNELS 3 Zrotation Yrotation Xrotation
			JOINT Spine2
			{
				OFFSET 0.001457 0.052922 0.025425
				CHANNELS 3 Zrotation Yrotation Xrotation
				JOINT Neck
				{
					OFFSET -0.002778 0.213870 -0.042857
					CHANNELS 3 Zrotation Yrotation Xrotation
					JOINT Head
					{
						OFFSET 0.005152 0.064970 0.051349
						CHANNELS 3 Zrotation Yrotation Xrotation
						End Site
						{
							OFFSET 0.000000 0.000000 0.000000
						}
					}
				}
				JOINT LeftShoulder
				{
					OFFSET 0.078845 0.121749 -0.034090
					CHANNELS 3 Zrotation Yrotation Xrotation
					JOINT LeftArm
					{
						OFFSET 0.090977 0.030469 -0.008868
						CHANNELS 3 Zrotation Yrotation Xrotation
						JOINT LeftForeArm
						{
							OFFSET 0.259612 -0.012772 -0.027456
							CHANNELS 3 Zrotation Yrotation Xrotation
							JOINT LeftHand
							{
								OFFSET 0.249234 0.008986 -0.001171
								CHANNELS 3 Zrotation Yrotation Xrotation
								End Site
								{
									OFFSET 0.000000 0.000000 0.000000
								}
							}
						}
					}
				}
				JOINT RightShoulder
				{
					OFFSET -0.081759 0.118833 -0.038615
					CHANNELS 3 Zrotation Yrotation Xrotation
					JOINT RightArm
					{
						OFFSET -0.096012 0.032551 -0.009143
						CHANNELS 3 Zrotation Yrotation Xrotation
						JOINT RightForeArm
						{
							OFFSET -0.253742 -0.013329 -0.021401
							CHANNELS 3 Zrotation Yrotation Xrotation
							JOINT RightHand
							{
								OFFSET -0.255298 0.007772 -0.005559
								CHANNELS 3 Zrotation Yrotation Xrotation
								End Site
								{
									OFFSET 0.000000 0.000000 0.000000
								}
							}
						}
					}
				}
			}
		}
	}
}
MOTION
Frames: 13
Frame Time: 0.050000
0.000000 0.933133 0.000000 -0.589899 -2.258905 2.217089 -2.561313 0.167624 1.127838 -2.388904 0.300067 -2.266060 4.773032 10.391510 1.580373 0.000000 0.000000 0.000000 -4.987281 0.325927 -2.823238 4.588932 -0.415020 14.416954 -7.230814 -17.577981 -1.101279 0.000000 0.000000 0.000000 0.698100 -0.031390 0.426191 -1.520475 0.726535 0.031720 -1.215291 1.456014 9.772977 3.655357 -0.646010 -20.409705 0.000000 0.000000 0.000000 -21.748040 -5.398101 1.014088 -38.818311 1.660919 -5.351893 2.138520 -24.951021 0.506860 0.000000 0.000000 0.000000 20.012334 5.609036 1.512259 43.076462 0.690274 -4.337191 -5.460549 23.552356 -0.194508 0.000000 0.000000 0.000000 
0.005855 0.931084 0.014690 -0.254917 -2.328216 1.896132 -3.420174 0.427232 3.062816 -2.811524 0.355705 -3.785817 5.210841 11.063782 0.431739 0.000000 0.000000 0.000000 -5.690289 0.473725 -5.681889 4.945335 -0.457483 22.039966 -7.873345 -19.109523 -1.582783 0.000000 0.000000 0.000000 0.250498 -0.013322 0.223593 -1.722782 0.823612 0.139582 -1.740998 0.426244 10.627389 3.523789 -0.513150 -22.387737 0.000000 0.000000 0.000000 -21.294040 -4.412973 0.814478 -40.393535 -1.017548 -4.931318 5.143889 -24.869914 -0.068807 0.000000 0.000000 0.000000 19.551832 5.972282 1.470841 46.225018 -0.874911 -5.215922 -6.204468 26.075739 -0.410052 0.000000 0.000000 0.000000 
0.011513 0.929760 0.029934 -0.528785 -2.385552 1.350407 -3.240149 0.534663 4.028436 -3.350383 0.392675 -2.209553 5.085561 10.470937 -1.323505 0.000000 0.000000 0.000000 -5.671743 0.760566 -11.241534 5.964787 -0.770655 33.724350 -9.065513 -21.954103 1.280434 0.000000 0.000000 0.000000 0.677153 -0.080176 1.520725 -2.207793 1.052922 -1.075636 -1.196951 -0.993146 12.078465 2.810063 -0.415034 -21.727597 0.000000 0.000000 0.000000 -20.282871 -5.475857 1.953464 -42.159460 -2.420465 -4.942368 3.010394 -25.750644 0.498059 0.000000 0.000000 0.000000 19.243459 6.453968 1.341642 46.389489 -1.530941 -5.477757 -3.538719 28.121847 0.072236 0.000000 0.000000 0.000000 
0.016533 0.928241 0.047185 -0.235956 -1.570669 0.373021 -4.082821 0.871371 6.359997 -2.646555 0.318683 -1.877740 4.390636 8.597947 -2.698657 0.000000 0.000000 0.000000 -6.450628 0.906931 -16.113378 7.224047 -1.554385 42.181418 -10.356859 -24.623129 3.302724 0.000000 0.000000 0.000000 0.165269 -0.097377 2.274359 -2.103118 1.009200 0.046413 -1.132039 -3.626541 12.113610 2.607225 -0.497212 -22.939124 0.000000 0.000000 0.000000 -22.045333 -6.226350 3.072667 -40.829194 -3.241603 -4.786998 4.168133 -28.125527 0.384876 0.000000 0.000000 0.000000 19.501349 6.959224 0.968643 46.242027 -3.620793 -6.054516 -1.855165 30.456330 0.334873 0.000000 0.000000 0.000000 
0.020753 0.927770 0.067455 -0.294062 -0.540159 -0.515642 -4.648709 1.260897 9.081095 -1.939981 0.259557 -2.599395 3.847981 7.349019 -2.621864 0.000000 0.000000 0.000000 -6.013911 1.194934 -21.770040 8.228829 -2.447275 46.632961 -11.121983 -26.039336 4.412647 0.000000 0.000000 0.000000 0.161482 -0.151565 3.583705 -1.123600 0.544063 -0.260388 -2.029023 -5.960364 12.061113 0.763952 0.201523 -21.358365 0.000000 0.000000 0.000000 -22.009262 -7.213191 4.147792 -41.109444 -5.355233 -4.292498 4.800137 -29.735698 0.344378 0.000000 0.000000 0.000000 17.866420 6.951440 0.651548 48.372233 -5.558456 -7.063925 1.083254 31.444048 0.983995 0.000000 0.000000 0.000000 
0.024117 0.926746 0.091395 -0.753252 -0.095060 -1.325516 -4.972025 1.627689 11.676619 -0.974767 0.183261 -2.966331 3.739105 6.645940 -3.945558 0.000000 0.000000 0.000000 -4.968237 1.583764 -25.869466 8.821648 -2.789569 44.444401 -10.739441 -25.196962 4.738688 0.000000 0.000000 0.000000 0.364155 -0.209187 4.734916 -0.684220 0.328028 0.109740 -1.818083 -7.432667 12.216316 -0.150010 0.555254 -21.449019 0.000000 0.000000 0.000000 -21.909871 -8.193652 5.111878 -41.793154 -6.719341 -4.049211 5.144465 -33.066637 0.416648 0.000000 0.000000 0.000000 17.097036 6.285664 0.086776 49.121113 -6.658355 -7.628983 2.615227 32.198456 1.313739 0.000000 0.000000 0.000000 
0.026444 0.923844 0.119037 -1.161692 -0.023793 -2.055698 -5.158511 1.995890 14.282744 -0.020911 0.113699 -3.290235 3.756815 6.390072 -4.792907 0.000000 0.000000 0.000000 -3.501705 2.032666 -27.944265 8.665670 -2.376661 36.653989 -10.830940 -25.181622 6.137653 0.000000 0.000000 0.000000 0.563739 -0.247852 5.405163 0.004952 -0.021186 0.677717 -2.162256 -7.944373 11.818699 -0.720607 0.817110 -20.876035 0.000000 0.000000 0.000000 -21.903722 -8.193132 5.207669 -41.723560 -8.826380 -3.380399 4.988670 -35.161932 0.556295 0.000000 0.000000 0.000000 16.457845 5.894115 -0.130166 50.764077 -7.759853 -8.399204 3.796734 31.984612 1.587049 0.000000 0.000000 0.000000 
0.027601 0.919797 0.150224 -1.187903 0.021322 -2.171704 -5.307944 2.350911 16.696652 1.020601 0.048120 -3.744919 3.886811 6.223088 -6.124346 0.000000 0.000000 0.000000 -2.691094 2.325595 -29.306491 8.162168 -1.775922 26.457531 -9.984398 -23.448595 7.141950 0.000000 0.000000 0.000000 0.208214 -0.234094 5.482190 0.396827 -0.215702 0.734020 -2.094028 -8.289011 12.146341 -1.378950 1.148199 -20.931547 0.000000 0.000000 0.000000 -21.185757 -9.441350 5.979727 -42.809507 -10.174874 -3.009949 5.426119 -38.222359 0.565179 0.000000 0.000000 0.000000 16.445264 5.605128 -0.342242 51.839278 -8.625169 -9.019721 5.153213 32.276322 1.948464 0.000000 0.000000 0.000000 
0.027581 0.913708 0.185222 -1.132418 0.262707 -1.531903 -4.885010 2.485145 18.158433 1.191021 0.053009 -4.133960 3.459219 4.735144 -7.200186 0.000000 0.000000 0.000000 -1.629619 2.581477 -29.454463 6.375054 -0.949467 15.020715 -9.118484 -21.778342 7.505612 0.000000 0.000000 0.000000 -0.205586 -0.183802 4.713709 0.677305 -0.369029 1.159409 -2.177391 -9.443965 11.432270 -1.869314 1.315415 -20.990665 0.000000 0.000000 0.000000 -20.896492 -8.648488 5.745220 -43.398582 -11.685761 -2.495564 6.176999 -41.085677 0.510389 0.000000 0.000000 0.000000 17.979365 6.675108 -0.305422 51.939543 -10.146669 -9.486090 5.872786 32.274567 2.062042 0.000000 0.000000 0.000000 
0.026477 0.905356 0.224013 -1.243132 1.145313 -1.126622 -4.411424 2.576139 19.782098 0.949574 0.039217 -3.350576 3.264616 3.556384 -8.481423 0.000000 0.000000 0.000000 -1.135453 2.590720 -28.947223 5.304769 -0.643615 7.342003 -8.334007 -20.227780 6.525221 0.000000 0.000000 0.000000 -0.269768 -0.170876 4.433196 0.938517 -0.539264 2.041440 -2.085772 -9.950630 10.076304 -1.647041 1.197165 -20.772719 0.000000 0.000000 0.000000 -20.702872 -10.047318 6.480954 -44.306130 -12.415488 -2.097802 6.682868 -43.383927 0.347552 0.000000 0.000000 0.000000 18.274810 6.269061 -0.601619 52.729943 -11.148442 -9.976537 6.933947 32.248013 2.324951 0.000000 0.000000 0.000000 
0.024337 0.897198 0.267214 -1.510172 2.376379 -0.928135 -3.077472 2.474958 21.765642 0.573628 0.022329 -2.117152 2.674863 1.683029 -8.830898 0.000000 0.000000 0.000000 -0.965941 2.533684 -28.858041 4.733178 -0.557966 5.956079 -8.020963 -19.503197 8.175580 0.000000 0.000000 0.000000 0.176422 -0.193129 4.472532 1.468187 -0.816663 2.043313 -2.407441 -11.063311 9.185125 -2.078140 1.407705 -20.596231 0.000000 0.000000 0.000000 -21.613529 -9.341853 6.273631 -45.386280 -11.695539 -2.354931 6.507127 -46.798817 0.588780 0.000000 0.000000 0.000000 19.721793 6.728839 -0.723096 52.488000 -11.839773 -10.022952 6.823999 32.383733 2.268987 0.000000 0.000000 0.000000 
0.020616 0.891901 0.315436 -1.876139 3.374144 -0.374858 -1.840620 2.302557 23.376366 0.303966 -0.032098 0.011311 2.229426 0.981660 -7.792520 0.000000 0.000000 0.000000 -0.791018 2.588687 -29.951914 5.181697 -0.695719 9.518836 -7.790704 -18.938394 11.408350 0.000000 0.000000 0.000000 0.475328 -0.196954 4.224253 1.588020 -0.891053 2.159965 -1.578690 -11.432457 8.036397 -1.815172 1.271133 -20.108220 0.000000 0.000000 0.000000 -22.453963 -8.960512 6.117235 -46.355743 -11.372188 -2.416296 4.620583 -46.897509 1.372862 0.000000 0.000000 0.000000 20.266489 6.443908 -0.995588 52.946441 -12.640104 -10.354080 6.856045 34.562489 2.399788 0.000000 0.000000 0.000000 
0.015449 0.891917 0.368363 -2.784844 3.845737 0.459590 -0.500225 1.986033 23.691809 0.693325 -0.228156 3.672240 1.720033 1.796568 -3.831290 0.000000 0.000000 0.000000 -0.245459 2.674566 -29.771633 7.078847 -1.210091 12.976352 -9.431997 -21.776549 12.641842 0.000000 0.000000 0.000000 0.810525 -0.158842 3.101386 2.314152 -1.272937 2.327220 -0.816870 -11.609453 7.025749 -1.446274 1.059596 -19.639510 0.000000 0.000000 0.000000 -23.898982 -7.453571 5.355190 -47.182482 -9.762698 -3.019462 1.245572 -46.241416 2.751500 0.000000 0.000000 0.000000 21.487584 7.539144 -0.643635 52.676782 -11.624288 -9.657631 4.018879 34.619821 1.562412 0.000000 0.000000 0.000000 
